<?xml version="1.0" encoding="utf-8"?>
<!-- Generator: Adobe Illustrator 23.0.1, SVG Export Plug-In . SVG Version: 6.00 Build 0)  -->
<svg version="1.1" id="Layer_1" xmlns="http://www.w3.org/2000/svg" xmlns:xlink="http://www.w3.org/1999/xlink" x="0px" y="0px"
	 viewBox="0 0 512 640" style="enable-background:new 0 0 512 640;" xml:space="preserve">
<g>
	<g>
		<g>
			<path d="M256,496c-64.1,0-124.4-25-169.7-70.3S16,320.1,16,256S41,131.6,86.3,86.3S191.9,16,256,16s124.4,25,169.7,70.3
				S496,191.9,496,256s-25,124.4-70.3,169.7S320.1,496,256,496z M256,36C134.7,36,36,134.7,36,256s98.7,220,220,220
				s220-98.7,220-220S377.3,36,256,36z"/>
		</g>
		<g>
			<path d="M256,436c-99.3,0-180-80.7-180-180S156.7,76,256,76s180,80.7,180,180S355.3,436,256,436z M256,96
				c-88.2,0-160,71.8-160,160c0,88.2,71.8,160,160,160c88.2,0,160-71.8,160-160C416,167.8,344.2,96,256,96z"/>
		</g>
		<g>
			<path d="M256,166c-5.5,0-10-4.5-10-10V86c0-5.5,4.5-10,10-10c5.5,0,10,4.5,10,10v70C266,161.5,261.5,166,256,166z"/>
		</g>
		<g>
			<path d="M256,436c-5.5,0-10-4.5-10-10v-70c0-5.5,4.5-10,10-10c5.5,0,10,4.5,10,10v70C266,431.5,261.5,436,256,436z"/>
		</g>
		<g>
			<path d="M326.7,195.3c-2.6,0-5.1-1-7.1-2.9c-3.9-3.9-3.9-10.2,0-14.1l49.5-49.5c3.9-3.9,10.2-3.9,14.1,0c3.9,3.9,3.9,10.2,0,14.1
				l-49.5,49.5C331.8,194.3,329.3,195.3,326.7,195.3z"/>
		</g>
		<g>
			<path d="M135.8,386.2c-2.6,0-5.1-1-7.1-2.9c-3.9-3.9-3.9-10.2,0-14.1l49.5-49.5c3.9-3.9,10.2-3.9,14.1,0c3.9,3.9,3.9,10.2,0,14.1
				l-49.5,49.5C140.9,385.2,138.4,386.2,135.8,386.2z"/>
		</g>
		<g>
			<path d="M426,266h-70c-5.5,0-10-4.5-10-10c0-5.5,4.5-10,10-10h70c5.5,0,10,4.5,10,10C436,261.5,431.5,266,426,266z"/>
		</g>
		<g>
			<path d="M156,266H86c-5.5,0-10-4.5-10-10c0-5.5,4.5-10,10-10h70c5.5,0,10,4.5,10,10C166,261.5,161.5,266,156,266z"/>
		</g>
		<g>
			<path d="M376.2,386.2c-2.6,0-5.1-1-7.1-2.9l-49.5-49.5c-3.9-3.9-3.9-10.2,0-14.1c3.9-3.9,10.2-3.9,14.1,0l49.5,49.5
				c3.9,3.9,3.9,10.2,0,14.1C381.3,385.2,378.8,386.2,376.2,386.2z"/>
		</g>
		<g>
			<path d="M185.3,195.3c-2.6,0-5.1-1-7.1-2.9l-49.5-49.5c-3.9-3.9-3.9-10.2,0-14.1c3.9-3.9,10.2-3.9,14.1,0l49.5,49.5
				c3.9,3.9,3.9,10.2,0,14.1C190.4,194.3,187.8,195.3,185.3,195.3z"/>
		</g>
		<g>
			<path d="M251,286c-13.8,0-25-11.2-25-25s11.2-25,25-25s25,11.2,25,25S264.8,286,251,286z M251,256c-2.8,0-5,2.2-5,5s2.2,5,5,5
				s5-2.2,5-5S253.8,256,251,256z"/>
		</g>
		<g>
			<path d="M251,246c-5.5,0-10-4.5-10-10v-40c0-5.5,4.5-10,10-10c5.5,0,10,4.5,10,10v40C261,241.5,256.5,246,251,246z"/>
		</g>
		<g>
			<path d="M306,276h-40c-5.5,0-10-4.5-10-10s4.5-10,10-10h40c5.5,0,10,4.5,10,10S311.5,276,306,276z"/>
		</g>
	</g>
</g>
</svg>
